<svg width="20" height="20" viewBox="0 0 20 20" fill="none" xmlns="http://www.w3.org/2000/svg">
<path d="M19.6571 0.639008C19.5251 0.399008 19.2731 0.25 19.0001 0.25H14.0001C13.7431 0.25 13.5051 0.380992 13.3671 0.597992L10.3971 5.26999C10.2651 5.26299 10.1341 5.25 10.0001 5.25C9.86614 5.25 9.73517 5.26299 9.60317 5.26999L6.6332 0.597992C6.4952 0.380992 6.25714 0.25 6.00014 0.25H1.00014C0.727144 0.25 0.475162 0.399008 0.343162 0.639008C0.211162 0.879008 0.221087 1.17101 0.367087 1.40201L4.4562 7.83801C3.3932 9.10001 2.75014 10.725 2.75014 12.5C2.75014 16.498 6.00214 19.75 10.0001 19.75C13.9981 19.75 17.2501 16.498 17.2501 12.5C17.2501 10.725 16.6071 9.10001 15.5441 7.83801L19.6332 1.40201C19.7792 1.17101 19.7891 0.879008 19.6571 0.639008ZM5.58816 1.75L7.99612 5.53799C7.10112 5.79599 6.27818 6.22201 5.56118 6.78101L2.36611 1.75H5.58816ZM10.0001 18.25C6.82914 18.25 4.25014 15.671 4.25014 12.5C4.25014 9.329 6.82914 6.75 10.0001 6.75C13.1711 6.75 15.7501 9.329 15.7501 12.5C15.7501 15.671 13.1711 18.25 10.0001 18.25ZM14.4391 6.78101C13.7221 6.22301 12.8992 5.79599 12.0042 5.53799L14.4121 1.75H17.6352L14.4391 6.78101ZM12.8212 10.827L11.5431 10.642L10.9932 9.53299C10.8052 9.15299 10.4251 8.91699 10.0001 8.91699C9.57514 8.91699 9.1952 9.15301 9.0082 9.53201L8.45718 10.642L7.1791 10.827C6.7681 10.886 6.4321 11.169 6.3041 11.565C6.1751 11.96 6.28112 12.386 6.57912 12.676L7.5021 13.571L7.29214 14.786C7.22014 15.204 7.38712 15.619 7.73012 15.869C8.07312 16.119 8.51909 16.154 8.89809 15.956L10.0011 15.379L11.1041 15.956C11.2671 16.041 11.4441 16.084 11.6201 16.084C11.8491 16.084 12.0771 16.012 12.2711 15.87C12.6151 15.62 12.7821 15.205 12.7091 14.789L12.4992 13.571L13.4221 12.675C13.7211 12.385 13.8262 11.96 13.6972 11.564C13.5682 11.169 13.2322 10.886 12.8212 10.827ZM9.64809 10.198C9.64809 10.199 9.64809 10.198 9.64809 10.198V10.198ZM11.2971 12.647C11.0391 12.896 10.9222 13.255 10.9832 13.608L11.0951 14.258L10.5032 13.948C10.1892 13.784 9.81209 13.784 9.49709 13.948L8.90517 14.258L9.01711 13.607C9.07811 13.255 8.96012 12.895 8.70412 12.647L8.2322 12.19L8.88613 12.095C9.23913 12.045 9.54415 11.824 9.70315 11.504L9.99917 10.907L10.2952 11.504C10.4542 11.823 10.7601 12.044 11.1111 12.094L11.7661 12.189L11.2971 12.647Z" fill="black"/>
</svg>
