<svg width="14" height="20" viewBox="0 0 14 20" fill="none" xmlns="http://www.w3.org/2000/svg">
<path d="M11.305 9.66699C12.184 8.88799 12.75 7.763 12.75 6.5C12.75 4.242 10.975 2.40802 8.75 2.27502V1C8.75 0.586 8.414 0.25 8 0.25C7.586 0.25 7.25 0.586 7.25 1V2.25H4.75V1C4.75 0.586 4.414 0.25 4 0.25C3.586 0.25 3.25 0.586 3.25 1V2.25H1C0.586 2.25 0.25 2.586 0.25 3C0.25 3.414 0.586 3.75 1 3.75H2.25V16.25H1C0.586 16.25 0.25 16.586 0.25 17C0.25 17.414 0.586 17.75 1 17.75H3.25V19C3.25 19.414 3.586 19.75 4 19.75C4.414 19.75 4.75 19.414 4.75 19V17.75H7.25V19C7.25 19.414 7.586 19.75 8 19.75C8.414 19.75 8.75 19.414 8.75 19V17.75H9.5C11.843 17.75 13.75 15.843 13.75 13.5C13.75 11.804 12.745 10.349 11.305 9.66699ZM8.5 3.75C10.017 3.75 11.25 4.983 11.25 6.5C11.25 8.017 10.017 9.25 8.5 9.25H3.75V3.75H8.5ZM9.5 16.25H3.75V10.75H8.5H9.5C11.017 10.75 12.25 11.983 12.25 13.5C12.25 15.017 11.017 16.25 9.5 16.25Z" fill="black"/>
</svg>
