<svg width="20" height="20" viewBox="0 0 20 20" fill="none" xmlns="http://www.w3.org/2000/svg">
<path d="M11.5 5.5C9.84598 5.5 8.49998 6.846 8.49998 8.5C8.49998 10.154 9.84598 11.5 11.5 11.5C13.154 11.5 14.5 10.154 14.5 8.5C14.5 6.846 13.154 5.5 11.5 5.5ZM11.5 10C10.673 10 9.99998 9.327 9.99998 8.5C9.99998 7.673 10.673 7 11.5 7C12.327 7 13 7.673 13 8.5C13 9.327 12.327 10 11.5 10ZM19.75 1C19.75 0.586 19.414 0.25 19 0.25C14.038 0.25 10.122 1.743 7.55198 4.483L5.65998 4.79999C3.68198 5.11999 1.99699 6.47499 1.26399 8.33099L0.303963 10.721C0.200963 10.977 0.246982 11.268 0.422982 11.48C0.566982 11.654 0.778978 11.751 0.999978 11.751C1.04898 11.751 1.09798 11.746 1.14698 11.737L4.37898 11.092C4.37798 11.1 4.37497 11.108 4.37397 11.116C4.25097 11.82 4.48898 12.551 5.00898 13.071L6.93098 14.994C7.36098 15.423 7.93499 15.66 8.51899 15.66C8.64099 15.66 8.76396 15.65 8.88596 15.629C8.89396 15.628 8.90198 15.625 8.90998 15.624L8.26499 18.856C8.21099 19.126 8.30897 19.404 8.52097 19.58C8.65797 19.694 8.82798 19.753 8.99998 19.753C9.09398 19.753 9.18897 19.735 9.27897 19.699L11.666 18.741C13.526 18.006 14.88 16.321 15.2 14.347L15.517 12.451C18.257 9.87799 19.75 5.962 19.75 1ZM17.712 5.474C17.083 4.057 15.943 2.91699 14.526 2.28799C15.894 1.94699 17.197 1.80601 18.235 1.76501C18.194 2.80401 18.053 4.106 17.712 5.474ZM2.21198 9.99301L2.65699 8.88599C3.19899 7.51499 4.44099 6.517 5.90299 6.28L6.20698 6.229C5.59098 7.205 5.10696 8.29301 4.76096 9.48401L2.21198 9.99301ZM8.62898 14.148C8.40798 14.185 8.16297 14.103 7.99097 13.931L6.06898 12.008C5.89598 11.836 5.81299 11.591 5.85099 11.371C6.61499 6.968 9.09898 4.566 11.811 3.258C11.874 3.255 11.935 3.25 12 3.25C14.619 3.25 16.75 5.381 16.75 8C16.75 8.059 16.748 8.12001 16.745 8.18201C15.438 10.896 13.036 13.384 8.62898 14.148ZM13.72 14.1C13.484 15.558 12.486 16.8 11.111 17.344L10.007 17.787L10.515 15.239C11.707 14.892 12.795 14.408 13.771 13.792L13.72 14.1Z" fill="black"/>
</svg>
