<svg width="16" height="20" viewBox="0 0 16 20" fill="none" xmlns="http://www.w3.org/2000/svg">
<path d="M8 19.7499C3.727 19.7499 0.25 16.2729 0.25 11.9999C0.25 9.67893 0.914001 8.0249 2.47 6.4699C2.769 6.1709 3.10599 5.87194 3.45599 5.56194C4.82999 4.34394 6.25 3.08491 6.25 1.00091C6.25 0.723906 6.402 0.469957 6.646 0.339957C6.891 0.209957 7.18599 0.223944 7.41599 0.376944C7.47599 0.416944 12.814 4.07492 10.577 10.3779C11.034 10.0309 11.485 9.56592 11.801 8.95592C12.099 8.37992 12.25 7.72191 12.25 7.00091C12.25 6.69691 12.434 6.42194 12.716 6.30694C12.997 6.19194 13.321 6.25791 13.535 6.47491C14.943 7.9049 15.75 9.91991 15.75 12.0009C15.75 16.2729 12.273 19.7499 8 19.7499ZM7.56201 2.47191C7.05901 4.37191 5.63701 5.63195 4.45001 6.68395C4.12401 6.97295 3.809 7.25096 3.53 7.52996C2.265 8.79496 1.75 10.0899 1.75 11.9999C1.75 15.4459 4.554 18.2499 8 18.2499C11.446 18.2499 14.25 15.4459 14.25 11.9999C14.25 10.8919 13.971 9.8089 13.459 8.8709C13.37 9.1379 13.261 9.39695 13.133 9.64495C11.903 12.0239 9.29301 12.7 9.18201 12.728C8.89001 12.801 8.58301 12.6929 8.40201 12.4529C8.22001 12.2129 8.19899 11.8889 8.34799 11.6279C10.975 7.03092 8.93601 3.88791 7.56201 2.47191Z" fill="black"/>
</svg>
