<svg width="20" height="20" viewBox="0 0 20 20" fill="none" xmlns="http://www.w3.org/2000/svg">
<path d="M19 0.25H1C0.586 0.25 0.25 0.586 0.25 1C0.25 1.414 0.586 1.75 1 1.75H1.75V11C1.75 13.418 3.082 14.75 5.5 14.75H9.25V16.599L6.584 18.376C6.239 18.606 6.14601 19.071 6.37601 19.416C6.60501 19.761 7.07 19.854 7.416 19.624L10 17.901L12.584 19.624C12.712 19.709 12.856 19.75 13 19.75C13.242 19.75 13.48 19.633 13.625 19.416C13.855 19.071 13.762 18.606 13.417 18.376L10.751 16.599V14.75H14.501C16.919 14.75 18.251 13.418 18.251 11V1.75H19C19.414 1.75 19.75 1.414 19.75 1C19.75 0.586 19.414 0.25 19 0.25ZM16.75 11C16.75 12.577 16.077 13.25 14.5 13.25H5.5C3.923 13.25 3.25 12.577 3.25 11V1.75H16.75V11ZM5.47 9.87402C5.177 9.58102 5.177 9.10599 5.47 8.81299L7.49699 6.78601C8.05899 6.22401 8.974 6.22401 9.535 6.78601L10.714 7.96497L12.227 6.40698H11.5C11.086 6.40698 10.75 6.07098 10.75 5.65698C10.75 5.24298 11.086 4.90698 11.5 4.90698H14C14.098 4.90698 14.195 4.92697 14.287 4.96497C14.47 5.04097 14.616 5.18697 14.692 5.37097C14.73 5.46297 14.75 5.55996 14.75 5.65796V8.15796C14.75 8.57196 14.414 8.90796 14 8.90796C13.586 8.90796 13.25 8.57196 13.25 8.15796V7.46899L11.692 9.02698C11.13 9.58898 10.215 9.58898 9.65401 9.02698L8.47501 7.84802L6.53101 9.875C6.38501 10.021 6.19301 10.095 6.00101 10.095C5.80901 10.095 5.616 10.02 5.47 9.87402Z" fill="black"/>
</svg>
