<svg width="14" height="20" viewBox="0 0 14 20" fill="none" xmlns="http://www.w3.org/2000/svg">
<path d="M13.7479 11.056C13.7529 10.971 13.7389 10.887 13.7149 10.804C13.7079 10.78 13.6979 10.759 13.6889 10.735C13.6779 10.707 13.672 10.677 13.657 10.65L8.37595 1.06299C8.09995 0.561988 7.57295 0.25 7.00095 0.25C6.42895 0.25 5.90095 0.561988 5.62595 1.06299L0.344942 10.65C0.329942 10.677 0.323929 10.707 0.312929 10.735C0.303929 10.758 0.293928 10.78 0.286928 10.804C0.262928 10.887 0.248939 10.971 0.253939 11.056C0.253939 11.059 0.254946 11.062 0.254946 11.066C0.255946 11.078 0.260934 11.088 0.261934 11.1C0.270934 11.173 0.290955 11.244 0.320955 11.312C0.324955 11.32 0.323944 11.329 0.327944 11.337C0.329944 11.34 0.328934 11.344 0.330934 11.348C0.332934 11.351 0.335953 11.3531 0.337953 11.3571C0.341953 11.3651 0.349952 11.371 0.354952 11.379C0.366952 11.4 0.372934 11.422 0.386934 11.442L5.71393 19.078C6.00693 19.499 6.48896 19.75 7.00196 19.75C7.51496 19.75 7.99695 19.499 8.28995 19.078L13.6169 11.441C13.6279 11.425 13.6329 11.408 13.6419 11.391C13.6509 11.375 13.6639 11.363 13.6729 11.347C13.6749 11.344 13.6739 11.3401 13.6759 11.3361C13.6799 11.3281 13.679 11.319 13.683 11.311C13.713 11.242 13.7329 11.172 13.7419 11.099C13.7429 11.087 13.7489 11.0769 13.7489 11.0649C13.7469 11.0619 13.7479 11.059 13.7479 11.056ZM6.93793 1.78699H7.06195L11.1809 9.26404L7.33594 7.34094C7.12494 7.23594 6.87595 7.23594 6.66495 7.34094L2.81995 9.26404L6.93793 1.78699ZM11.045 10.873L6.99994 12.2209L2.95493 10.873L6.99994 8.84998L11.045 10.873ZM7.05795 18.22C7.05795 18.22 6.98593 18.22 6.95593 18.22C6.94793 18.22 6.94293 18.22 6.94293 18.22L2.90994 12.4399L6.76294 13.724C6.83994 13.75 6.91994 13.7629 6.99994 13.7629C7.07994 13.7629 7.15994 13.75 7.23694 13.724L11.0899 12.4399L7.05795 18.22Z" fill="black"/>
</svg>
