<svg width="17" height="17" viewBox="0 0 17 17" fill="none" xmlns="http://www.w3.org/2000/svg">
<path d="M2 3.49999C2.16667 2.49999 3 0.999985 5 2.99999" stroke="black" stroke-linecap="round"/>
<path d="M14.5 3.49999C14.3333 2.49999 13.5 0.999985 11.5 2.99999" stroke="black" stroke-linecap="round"/>
<path d="M17 8.5C17 10.7543 16.1045 12.9163 14.5104 14.5104C12.9163 16.1045 10.7543 17 8.5 17C6.24566 17 4.08365 16.1045 2.48959 14.5104C0.895534 12.9163 3.40396e-07 10.7543 0 8.5H0.85C0.850001 10.5289 1.65598 12.4747 3.09063 13.9094C4.52529 15.344 6.47109 16.15 8.5 16.15C10.5289 16.15 12.4747 15.344 13.9094 13.9094C15.344 12.4747 16.15 10.5289 16.15 8.5H17Z" fill="black"/>
</svg>
