<svg width="20" height="20" viewBox="0 0 20 20" fill="none" xmlns="http://www.w3.org/2000/svg">
<path d="M8.75 11C8.75 11.414 8.414 11.75 8 11.75H6.75V13C6.75 13.414 6.414 13.75 6 13.75C5.586 13.75 5.25 13.414 5.25 13V11.75H4C3.586 11.75 3.25 11.414 3.25 11C3.25 10.586 3.586 10.25 4 10.25H5.25V9C5.25 8.586 5.586 8.25 6 8.25C6.414 8.25 6.75 8.586 6.75 9V10.25H8C8.414 10.25 8.75 10.586 8.75 11ZM19.75 11V15C19.75 17.36 18.462 19.75 16 19.75H15.741C14.399 19.75 13.1539 19.084 12.4099 17.968C12.3749 17.915 11.575 16.75 10 16.75C8.396 16.75 7.60102 17.9409 7.59302 17.9529C6.84702 19.0799 5.59993 19.75 4.25293 19.75H4C1.538 19.75 0.25 17.36 0.25 15V11C0.25 6.773 2.399 4.25 6 4.25H9.25V4C9.25 2.759 10.26 1.75 11.5 1.75H12.5C12.913 1.75 13.25 1.414 13.25 1C13.25 0.586 13.586 0.25 14 0.25C14.414 0.25 14.75 0.586 14.75 1C14.75 2.241 13.74 3.25 12.5 3.25H11.5C11.087 3.25 10.75 3.586 10.75 4V4.25H14C17.601 4.25 19.75 6.773 19.75 11ZM18.25 11C18.25 7.614 16.74 5.75 14 5.75H6C3.26 5.75 1.75 7.614 1.75 11V15C1.75 16.565 2.454 18.25 4 18.25H4.25293C5.09493 18.25 5.87509 17.8309 6.34009 17.1289C6.38709 17.0559 7.593 15.25 10 15.25C12.408 15.25 13.6131 17.066 13.6631 17.144C14.1241 17.833 14.902 18.25 15.741 18.25H16C17.546 18.25 18.25 16.565 18.25 15V11ZM12.75 11.25C12.198 11.25 11.75 11.698 11.75 12.25C11.75 12.802 12.198 13.25 12.75 13.25C13.302 13.25 13.75 12.802 13.75 12.25C13.75 11.698 13.302 11.25 12.75 11.25ZM15.25 8.75098C14.698 8.75098 14.25 9.19898 14.25 9.75098C14.25 10.303 14.698 10.751 15.25 10.751C15.802 10.751 16.25 10.303 16.25 9.75098C16.25 9.19898 15.802 8.75098 15.25 8.75098Z" fill="black"/>
</svg>
