<svg width="20" height="20" viewBox="0 0 20 20" fill="none" xmlns="http://www.w3.org/2000/svg">
<path d="M17.4771 10C18.1391 8.979 18.6832 7.96003 19.0692 6.97803C20.0662 4.44703 19.9641 2.40099 18.7811 1.21899C17.5981 0.0359943 15.554 -0.0659462 13.022 0.930054C12.04 1.31705 11.0201 1.86095 10.0001 2.52295C8.97907 1.86095 7.9601 1.31705 6.9781 0.930054C4.4501 -0.0659462 2.40406 0.0349942 1.21906 1.21899C0.0360647 2.40099 -0.0660213 4.44703 0.930979 6.97803C1.31798 7.96003 1.86202 8.98 2.52302 10C1.86102 11.021 1.31698 12.04 0.930979 13.022C-0.0660213 15.553 0.0360647 17.599 1.21906 18.781C1.86406 19.425 2.76296 19.749 3.85896 19.749C4.77396 19.749 5.8261 19.523 6.9781 19.069C7.9601 18.682 8.98007 18.138 10.0001 17.476C11.0211 18.138 12.04 18.682 13.022 19.069C14.174 19.523 15.2262 19.749 16.1412 19.749C17.2362 19.749 18.1361 19.425 18.7811 18.781C19.9641 17.598 20.0662 15.553 19.0692 13.022C18.6832 12.04 18.1391 11.021 17.4771 10ZM13.5721 2.32605C14.5491 1.94105 15.422 1.74805 16.137 1.74805C16.824 1.74805 17.366 1.92505 17.72 2.27905C18.444 3.00305 18.4272 4.515 17.6732 6.427C17.3872 7.154 17.002 7.90604 16.544 8.66504C15.827 7.71604 15.014 6.777 14.117 5.88C13.22 4.98301 12.2821 4.17 11.3331 3.453C12.0931 2.997 12.8451 2.61305 13.5721 2.32605ZM6.94197 6.94202C7.92797 5.95602 8.96207 5.08204 10.0001 4.33704C11.0381 5.08204 12.0722 5.95602 13.0582 6.94202C14.0442 7.92802 14.9191 8.962 15.6641 10C14.9191 11.038 14.0442 12.072 13.0582 13.058C12.0722 14.044 11.0381 14.918 10.0001 15.663C8.96207 14.918 7.92797 14.044 6.94197 13.058C5.95597 12.072 5.08101 11.038 4.33601 10C5.08201 8.962 5.95597 7.92802 6.94197 6.94202ZM2.326 6.42798C1.572 4.51498 1.55512 3.00303 2.27912 2.28003C2.63312 1.92603 3.17513 1.74902 3.86213 1.74902C4.57813 1.74902 5.45107 1.94203 6.42707 2.32703C7.15407 2.61303 7.90611 2.99805 8.66511 3.45605C7.71611 4.17305 6.77817 4.98506 5.88117 5.88306C4.98417 6.78006 4.17117 7.71797 3.45417 8.66797C2.99717 7.90697 2.613 7.15498 2.326 6.42798ZM6.42805 17.674C4.51605 18.427 3.0031 18.4449 2.2801 17.7209C1.5561 16.9969 1.57297 15.485 2.32697 13.572C2.61297 12.845 2.99813 12.093 3.45613 11.334C4.17313 12.283 4.98613 13.222 5.88313 14.119C6.78013 15.016 7.71806 15.829 8.66706 16.545C7.90706 17.003 7.15505 17.3869 6.42805 17.674ZM17.721 17.7209C16.997 18.4449 15.4861 18.4279 13.5731 17.674C12.8461 17.388 12.0941 17.003 11.3341 16.545C12.2831 15.828 13.221 15.016 14.118 14.119C15.015 13.222 15.828 12.284 16.545 11.334C17.003 12.093 17.3881 12.845 17.6741 13.572C18.4281 15.485 18.444 16.9979 17.721 17.7209ZM8.76496 10C8.76496 9.31 9.32008 8.75 10.0101 8.75H10.0201C10.7101 8.75 11.2701 9.31 11.2701 10C11.2701 10.69 10.7101 11.25 10.0201 11.25C9.33009 11.25 8.76496 10.69 8.76496 10Z" fill="black"/>
</svg>
