<svg width="19" height="20" viewBox="0 0 19 20" fill="none" xmlns="http://www.w3.org/2000/svg">
<path d="M9.75002 16.724V18.25H13C13.414 18.25 13.75 18.586 13.75 19C13.75 19.414 13.414 19.75 13 19.75H5.00002C4.58602 19.75 4.25002 19.414 4.25002 19C4.25002 18.586 4.58602 18.25 5.00002 18.25H8.25002V16.6961C6.31102 16.4981 4.49909 15.718 3.01809 14.434L1.53103 15.921C1.23803 16.214 0.762994 16.214 0.469994 15.921C0.176994 15.628 0.176994 15.153 0.469994 14.86L2.46999 12.86C2.61099 12.719 2.80102 12.64 3.00002 12.64C3.00102 12.64 3.00198 12.64 3.00198 12.64C3.20198 12.64 3.39398 12.7211 3.53298 12.8631C5.05398 14.4021 7.077 15.25 9.23 15.25C13.652 15.25 17.25 11.657 17.25 7.24001C17.25 5.09001 16.4011 3.063 14.8611 1.532C14.5671 1.24 14.565 0.764963 14.857 0.470963C15.15 0.176963 15.627 0.177034 15.918 0.468034C17.744 2.28203 18.75 4.68801 18.75 7.24001C18.75 12.309 14.757 16.452 9.75002 16.724ZM2.75002 7.25002C2.75002 3.80402 5.55402 1.00002 9.00002 1.00002C12.446 1.00002 15.25 3.80402 15.25 7.25002C15.25 10.696 12.446 13.5 9.00002 13.5C5.55402 13.5 2.75002 10.696 2.75002 7.25002ZM4.25002 7.25002C4.25002 9.86902 6.38102 12 9.00002 12C11.619 12 13.75 9.86902 13.75 7.25002C13.75 4.63102 11.619 2.50002 9.00002 2.50002C6.38102 2.50002 4.25002 4.63102 4.25002 7.25002Z" fill="black"/>
</svg>
