<svg width="20" height="20" viewBox="0 0 20 20" fill="none" xmlns="http://www.w3.org/2000/svg">
<path d="M19 18.2499H18.75V16.9999C18.75 15.9199 18.079 15.2499 17 15.2499H16.75V9.7499H17C18.079 9.7499 18.75 9.0799 18.75 7.9999V5.44082C18.75 4.77382 18.379 4.17388 17.782 3.87588L11.006 0.487941C10.375 0.173941 9.62302 0.173941 8.99402 0.487941L2.21802 3.87588C1.62102 4.17388 1.25 4.77382 1.25 5.44082V7.9999C1.25 9.0799 1.921 9.7499 3 9.7499H3.25V15.2499H3C1.921 15.2499 1.25 15.9199 1.25 16.9999V18.2499H1C0.586 18.2499 0.25 18.5859 0.25 18.9999C0.25 19.4139 0.586 19.7499 1 19.7499H19C19.414 19.7499 19.75 19.4139 19.75 18.9999C19.75 18.5859 19.414 18.2499 19 18.2499ZM15.25 15.2499H12.75V9.7499H15.25V15.2499ZM8.75 15.2499V9.7499H11.25V15.2499H8.75ZM2.78406 8.2228C2.78306 8.2228 2.78306 8.2228 2.78406 8.2228C2.77906 8.2148 2.75 8.1559 2.75 7.9999V5.44082C2.75 5.34582 2.80294 5.25995 2.88794 5.21695L9.66394 1.82901C9.87694 1.72301 10.1231 1.72301 10.3361 1.82901L17.1121 5.21695C17.1971 5.25894 17.25 5.34482 17.25 5.44082V7.9999C17.25 8.1559 17.221 8.21395 17.223 8.21695C17.215 8.22095 17.156 8.2499 17 8.2499H3C2.849 8.2499 2.78906 8.2228 2.78406 8.2228ZM4.75 9.7499H7.25V15.2499H4.75V9.7499ZM2.75 16.9999C2.75 16.8439 2.77898 16.7859 2.77698 16.7829C2.78498 16.7789 2.844 16.7499 3 16.7499H17C17.182 16.7499 17.218 16.777 17.217 16.777C17.221 16.786 17.25 16.8439 17.25 16.9999V18.2499H2.75V16.9999ZM8.75 4.9999C8.75 4.3099 9.31 3.7499 10 3.7499C10.69 3.7499 11.25 4.3099 11.25 4.9999C11.25 5.6899 10.69 6.2499 10 6.2499C9.31 6.2499 8.75 5.6899 8.75 4.9999Z" fill="black"/>
</svg>
