<svg width="21" height="20" viewBox="0 0 21 20" fill="none" xmlns="http://www.w3.org/2000/svg">
<path d="M18 19.75H14.5C13.811 19.75 13.25 19.189 13.25 18.5V17C13.25 16.311 12.689 15.75 12 15.75C11.311 15.75 10.75 16.311 10.75 17V18.5C10.75 19.189 10.189 19.75 9.5 19.75H7C5.483 19.75 4.25 18.516 4.25 17V14.75H3C1.483 14.75 0.25 13.516 0.25 12C0.25 10.484 1.483 9.25 3 9.25H4.25V7C4.25 5.484 5.483 4.25 7 4.25H9.25V3C9.25 1.484 10.483 0.25 12 0.25C13.517 0.25 14.75 1.484 14.75 3V4.25H18C19.517 4.25 20.75 5.484 20.75 7V9.5C20.75 10.189 20.189 10.75 19.5 10.75H18C17.311 10.75 16.75 11.311 16.75 12C16.75 12.689 17.311 13.25 18 13.25H19.5C20.189 13.25 20.75 13.811 20.75 14.5V17C20.75 18.516 19.517 19.75 18 19.75ZM14.75 18.25H18C18.689 18.25 19.25 17.689 19.25 17V14.75H18C16.483 14.75 15.25 13.516 15.25 12C15.25 10.484 16.483 9.25 18 9.25H19.25V7C19.25 6.311 18.689 5.75 18 5.75H14.5C13.811 5.75 13.25 5.189 13.25 4.5V3C13.25 2.311 12.689 1.75 12 1.75C11.311 1.75 10.75 2.311 10.75 3V4.5C10.75 5.189 10.189 5.75 9.5 5.75H7C6.311 5.75 5.75 6.311 5.75 7V9.5C5.75 10.189 5.189 10.75 4.5 10.75H3C2.311 10.75 1.75 11.311 1.75 12C1.75 12.689 2.311 13.25 3 13.25H4.5C5.189 13.25 5.75 13.811 5.75 14.5V17C5.75 17.689 6.311 18.25 7 18.25H9.25V17C9.25 15.484 10.483 14.25 12 14.25C13.517 14.25 14.75 15.484 14.75 17V18.25Z" fill="black"/>
</svg>
