<svg width="20" height="20" viewBox="0 0 20 20" fill="none" xmlns="http://www.w3.org/2000/svg">
<path d="M5.75 11.0002C5.75 12.7922 7.208 14.2502 9 14.2502C10.485 14.2502 11.778 13.2491 12.144 11.8151C12.246 11.4131 12.661 11.1711 13.055 11.2731C13.457 11.3761 13.7 11.7842 13.597 12.1852C13.063 14.2842 11.172 15.7502 9 15.7502C6.381 15.7502 4.25 13.6192 4.25 11.0002C4.25 8.82717 5.716 6.93725 7.815 6.40325C8.212 6.30325 8.62501 6.54324 8.72601 6.94524C8.82901 7.34624 8.58502 7.7551 8.18402 7.8571C6.75102 8.2211 5.75 9.51417 5.75 11.0002ZM16.885 9.71526C16.474 9.76226 16.178 10.1331 16.225 10.5451C16.243 10.6971 16.25 10.8482 16.25 11.0002C16.25 14.9982 12.998 18.2502 9 18.2502C5.002 18.2502 1.75 14.9982 1.75 11.0002C1.75 7.00217 5.002 3.75017 9 3.75017C9.152 3.75017 9.30497 3.75807 9.45697 3.77507C9.87897 3.82007 10.24 3.52423 10.285 3.11223C10.331 2.70023 10.035 2.32913 9.62299 2.28313C9.41599 2.26013 9.207 2.24919 9 2.24919C4.175 2.24919 0.25 6.17419 0.25 10.9992C0.25 15.8242 4.175 19.7492 9 19.7492C13.825 19.7492 17.75 15.8242 17.75 10.9992C17.75 10.7912 17.738 10.5822 17.715 10.3742C17.668 9.96319 17.305 9.66926 16.885 9.71526ZM19.53 5.5302L16.969 8.09123C16.55 8.51023 15.97 8.75017 15.378 8.75017H12.31L9.53003 11.5302C9.38403 11.6762 9.192 11.7502 9 11.7502C8.808 11.7502 8.61597 11.6772 8.46997 11.5302C8.17697 11.2372 8.17697 10.7622 8.46997 10.4692L11.25 7.68913V4.62126C11.25 4.02926 11.49 3.4492 11.909 3.0302L14.47 0.469164C14.685 0.254164 15.007 0.190078 15.287 0.306078C15.567 0.422078 15.75 0.696193 15.75 0.999193V4.24919H19C19.304 4.24919 19.577 4.43208 19.693 4.71208C19.809 4.99308 19.745 5.3162 19.53 5.5302ZM12.75 4.62126V6.18913L14.25 4.68913V2.81023L12.97 4.09026C12.83 4.23026 12.75 4.42426 12.75 4.62126ZM17.189 5.75017H15.31L13.81 7.25017H15.378C15.575 7.25017 15.769 7.1702 15.908 7.0302L17.189 5.75017Z" fill="black"/>
</svg>
