<svg width="14" height="20" viewBox="0 0 14 20" fill="none" xmlns="http://www.w3.org/2000/svg">
<path d="M2.41309 19.75C2.27609 19.75 2.13909 19.713 2.01709 19.636C1.72109 19.451 1.59108 19.086 1.70508 18.756L4.45404 10.749H2.00305C1.44105 10.749 0.910033 10.477 0.582032 10.021C0.254032 9.56603 0.165042 8.97704 0.342042 8.44504L2.96307 1.75104C3.26607 0.838038 4.05204 0.249023 5.00104 0.249023H9.48004C10.071 0.249023 10.6171 0.544033 10.9421 1.03703C11.2671 1.53103 11.321 2.15003 11.087 2.69203L9.55206 6.24902H11.9991C12.7091 6.24902 13.3441 6.67303 13.6161 7.32903C13.8881 7.98503 13.7391 8.73402 13.2371 9.23602L2.94507 19.529C2.79907 19.675 2.60709 19.75 2.41309 19.75ZM5.00006 1.75003C4.60206 1.75003 4.43607 2.07103 4.37207 2.26303L1.75104 8.95802C1.72904 9.02702 1.77104 9.10803 1.79804 9.14603C1.82604 9.18503 1.89008 9.25003 2.00208 9.25003H4.87305C5.26005 9.25003 5.62504 9.43803 5.85004 9.75203C6.07504 10.066 6.13403 10.473 6.00903 10.839L4.17706 16.177L12.1761 8.17703C12.2791 8.07403 12.254 7.96203 12.23 7.90503C12.206 7.84803 12.1441 7.75104 11.9991 7.75104H9.09607C8.69107 7.75104 8.31706 7.54903 8.09406 7.21103C7.87106 6.87303 7.83408 6.44803 7.99408 6.07603L9.71008 2.10004C9.75608 1.99204 9.71709 1.90504 9.68909 1.86304C9.66109 1.82104 9.59808 1.75003 9.48108 1.75003H5.00006ZM4.87305 10.75H4.88306H4.87305Z" fill="black"/>
</svg>
