<svg width="24" height="24" viewBox="0 0 24 24" fill="none" xmlns="http://www.w3.org/2000/svg">
<path d="M21.75 7V11.1541C21.75 11.5681 21.414 11.9041 21 11.9041C20.586 11.9041 20.25 11.5681 20.25 11.1541V8.81104L14.237 14.824C13.554 15.507 12.445 15.507 11.762 14.824L9.17601 12.238C9.07801 12.14 8.92002 12.14 8.82202 12.238L3.52902 17.531C3.38302 17.677 3.19102 17.751 2.99902 17.751C2.80702 17.751 2.61502 17.678 2.46902 17.531C2.17602 17.238 2.17602 16.763 2.46902 16.47L7.76202 11.177C8.44502 10.494 9.55402 10.494 10.237 11.177L12.823 13.7629C12.921 13.8609 13.079 13.8609 13.177 13.7629L19.19 7.75H16.847C16.433 7.75 16.097 7.414 16.097 7C16.097 6.586 16.433 6.25 16.847 6.25H21C21.098 6.25 21.195 6.27011 21.287 6.30811C21.47 6.38411 21.616 6.53011 21.692 6.71411C21.73 6.80511 21.75 6.902 21.75 7Z" fill="black"/>
</svg>
