<svg width="20" height="20" viewBox="0 0 20 20" fill="none" xmlns="http://www.w3.org/2000/svg">
<path d="M16 4.24978H11.811L14.531 1.52981C14.824 1.23681 14.824 0.761773 14.531 0.468773C14.238 0.175773 13.763 0.175773 13.47 0.468773L10 3.93874L6.53003 0.468773C6.23703 0.175773 5.76199 0.175773 5.46899 0.468773C5.17599 0.761773 5.17599 1.23681 5.46899 1.52981L8.18896 4.24978H4C1.582 4.24978 0.25 5.58178 0.25 7.99978V15.9998C0.25 18.4178 1.582 19.7498 4 19.7498H16C18.418 19.7498 19.75 18.4178 19.75 15.9998V7.99978C19.75 5.58178 18.418 4.24978 16 4.24978ZM18.25 15.9998C18.25 17.5768 17.577 18.2498 16 18.2498H4C2.423 18.2498 1.75 17.5768 1.75 15.9998V7.99978C1.75 6.42278 2.423 5.74978 4 5.74978H16C17.577 5.74978 18.25 6.42278 18.25 7.99978V15.9998ZM11.5 7.24978H5.5C4.091 7.24978 3.25 8.09078 3.25 9.49978V14.4998C3.25 15.9088 4.091 16.7498 5.5 16.7498H11.5C12.909 16.7498 13.75 15.9088 13.75 14.4998V9.49978C13.75 8.09078 12.909 7.24978 11.5 7.24978ZM12.25 14.4998C12.25 15.0888 12.089 15.2498 11.5 15.2498H5.5C4.911 15.2498 4.75 15.0888 4.75 14.4998V9.49978C4.75 8.91078 4.911 8.74978 5.5 8.74978H11.5C12.089 8.74978 12.25 8.91078 12.25 9.49978V14.4998ZM17 8.99978C17 9.55178 16.552 9.99978 16 9.99978C15.448 9.99978 15 9.55178 15 8.99978C15 8.44778 15.448 7.99978 16 7.99978C16.552 7.99978 17 8.44778 17 8.99978ZM17 11.9998C17 12.5518 16.552 12.9998 16 12.9998C15.448 12.9998 15 12.5518 15 11.9998C15 11.4478 15.448 10.9998 16 10.9998C16.552 10.9998 17 11.4478 17 11.9998Z" fill="black"/>
</svg>
