<svg width="16" height="20" viewBox="0 0 16 20" fill="none" xmlns="http://www.w3.org/2000/svg">
<path d="M15.5301 8.5299C15.3841 8.6759 15.192 8.74987 15 8.74987C14.808 8.74987 14.616 8.6769 14.47 8.5299L8.75002 2.80993V18.9999C8.75002 19.4139 8.41402 19.7499 8.00002 19.7499C7.58602 19.7499 7.25002 19.4139 7.25002 18.9999V2.81091L1.53005 8.53088C1.23705 8.82388 0.762018 8.82388 0.469018 8.53088C0.176018 8.23788 0.176018 7.76284 0.469018 7.46984L7.46902 0.469842C7.53802 0.400842 7.62091 0.345977 7.71291 0.307977C7.89591 0.231977 8.10291 0.231977 8.28591 0.307977C8.37791 0.345977 8.46105 0.400842 8.53005 0.469842L15.5301 7.46984C15.8231 7.76284 15.8231 8.2369 15.5301 8.5299Z" fill="#000000"/>
</svg>
