<svg width="24" height="24" viewBox="0 0 24 24" fill="none" class="no-fill-inverse" xmlns="http://www.w3.org/2000/svg">
<g clip-path="url(#clip0_376_506)">
<path d="M9.9902 2.78041C10.5014 0.673212 13.499 0.673212 14.0102 2.78041C14.0869 3.09697 14.2373 3.39095 14.449 3.63841C14.6608 3.88588 14.9281 4.07984 15.229 4.20451C15.5299 4.32918 15.856 4.38103 16.1807 4.35586C16.5055 4.33068 16.8197 4.22918 17.0978 4.05961C18.9494 2.93161 21.0698 5.05081 19.9418 6.90361C19.7725 7.1816 19.6711 7.49562 19.646 7.82014C19.6209 8.14466 19.6727 8.47054 19.7972 8.77127C19.9218 9.072 20.1155 9.33911 20.3627 9.55088C20.6099 9.76264 20.9035 9.9131 21.2198 9.99001C23.327 10.5012 23.327 13.4988 21.2198 14.01C20.9032 14.0867 20.6093 14.2371 20.3618 14.4489C20.1143 14.6607 19.9204 14.9279 19.7957 15.2288C19.671 15.5297 19.6192 15.8558 19.6444 16.1806C19.6695 16.5053 19.771 16.8195 19.9406 17.0976C21.0686 18.9492 18.9494 21.0696 17.0966 19.9416C16.8186 19.7723 16.5046 19.671 16.1801 19.6458C15.8555 19.6207 15.5297 19.6725 15.2289 19.797C14.9282 19.9216 14.6611 20.1153 14.4493 20.3625C14.2376 20.6097 14.0871 20.9033 14.0102 21.2196C13.499 23.3268 10.5014 23.3268 9.9902 21.2196C9.91349 20.9031 9.76313 20.6091 9.55134 20.3616C9.33956 20.1141 9.07233 19.9202 8.77141 19.7955C8.4705 19.6708 8.1444 19.619 7.81965 19.6442C7.49491 19.6693 7.1807 19.7709 6.9026 19.9404C5.051 21.0684 2.9306 18.9492 4.0586 17.0964C4.22792 16.8184 4.32926 16.5044 4.35438 16.1799C4.3795 15.8554 4.32769 15.5295 4.20316 15.2288C4.07864 14.928 3.88491 14.6609 3.63772 14.4492C3.39054 14.2374 3.09687 14.0869 2.7806 14.01C0.673395 13.4988 0.673395 10.5012 2.7806 9.99001C3.09715 9.91331 3.39113 9.76295 3.63859 9.55116C3.88606 9.33937 4.08002 9.07215 4.20469 8.77123C4.32936 8.47031 4.38122 8.14421 4.35604 7.81947C4.33086 7.49473 4.22936 7.18052 4.0598 6.90241C2.9318 5.05081 5.051 2.93041 6.9038 4.05841C8.1038 4.78801 9.659 4.14241 9.9902 2.78041Z" stroke="white" stroke-width="1.8" stroke-linecap="round" stroke-linejoin="round"/>
<path d="M11.9999 15.6C13.9881 15.6 15.5999 13.9882 15.5999 12C15.5999 10.0118 13.9881 8.40002 11.9999 8.40002C10.0117 8.40002 8.3999 10.0118 8.3999 12C8.3999 13.9882 10.0117 15.6 11.9999 15.6Z" stroke="white" stroke-width="1.8" stroke-linecap="round" stroke-linejoin="round"/>
</g>
<defs>
<clipPath id="clip0_376_506">
<rect width="24" height="24" fill="white"/>
</clipPath>
</defs>
</svg>
