<svg width="28" height="27" viewBox="0 0 28 27" fill="none" class="no-fill" xmlns="http://www.w3.org/2000/svg">
<path d="M23 12.3749C22.7249 10.3952 21.8065 8.56078 20.3862 7.15435C18.966 5.74791 17.1227 4.84745 15.1404 4.59166C13.158 4.33587 11.1466 4.73896 9.41585 5.73881C7.68513 6.73867 6.33116 8.27984 5.5625 10.1249M5 5.62491V10.1249H9.5" stroke="black" stroke-opacity="0.48" stroke-width="1.6875" stroke-linecap="round" stroke-linejoin="round"/>
<path d="M5 14.625C5.27513 16.6048 6.19355 18.4391 7.61378 19.8456C9.03402 21.252 10.8773 22.1525 12.8596 22.4083C14.842 22.664 16.8534 22.261 18.5841 21.2611C20.3149 20.2612 21.6688 18.7201 22.4375 16.875M23 21.375V16.875H18.5" stroke="black" stroke-opacity="0.48" stroke-width="1.6875" stroke-linecap="round" stroke-linejoin="round"/>
</svg>
