<svg width="20" height="20" viewBox="0 0 20 20" fill="none" xmlns="http://www.w3.org/2000/svg">
<path d="M10.1151 19.749C9.63509 19.749 9.15011 19.715 8.66111 19.645C4.27211 19.019 0.84311 15.54 0.32111 11.185C0.0611097 9.015 0.512109 6.888 1.62711 5.034C3.40111 2.083 6.66009 0.25 10.1331 0.25C10.6041 0.251 11.0041 0.529008 11.1631 0.958008C11.3241 1.39101 11.2011 1.866 10.8501 2.168C9.2721 3.526 8.56611 5.56899 8.96311 7.63199C9.42311 10.03 11.3971 11.863 13.8731 12.194C15.3701 12.393 16.8111 12.058 18.0321 11.22C18.4151 10.959 18.9071 10.961 19.2841 11.226C19.6601 11.489 19.8291 11.946 19.7161 12.389C18.5931 16.779 14.6051 19.748 10.1151 19.749ZM9.08509 1.81601C6.53609 2.13701 4.23508 3.60501 2.91208 5.80701C1.97208 7.37201 1.59009 9.17001 1.81009 11.006C2.25109 14.688 5.1551 17.629 8.8721 18.16C12.8161 18.722 16.5421 16.546 17.9421 13.003C16.6341 13.639 15.1531 13.879 13.6721 13.682C10.5551 13.266 8.0701 10.948 7.4881 7.91599C7.0621 5.68898 7.65409 3.48101 9.08509 1.81601ZM2.27008 5.42001H2.28009H2.27008Z" fill="#000000"/>
</svg>
