<svg width="20" height="20" viewBox="0 0 20 20" fill="none" xmlns="http://www.w3.org/2000/svg">
<path d="M10 5.25C7.381 5.25 5.25 7.381 5.25 10C5.25 12.619 7.381 14.75 10 14.75C12.619 14.75 14.75 12.619 14.75 10C14.75 7.381 12.619 5.25 10 5.25ZM10 13.25C8.208 13.25 6.75 11.792 6.75 10C6.75 8.208 8.208 6.75 10 6.75C11.792 6.75 13.25 8.208 13.25 10C13.25 11.792 11.792 13.25 10 13.25ZM9.25 3V1C9.25 0.586 9.586 0.25 10 0.25C10.414 0.25 10.75 0.586 10.75 1V3C10.75 3.414 10.414 3.75 10 3.75C9.586 3.75 9.25 3.414 9.25 3ZM10.75 17V19C10.75 19.414 10.414 19.75 10 19.75C9.586 19.75 9.25 19.414 9.25 19V17C9.25 16.586 9.586 16.25 10 16.25C10.414 16.25 10.75 16.586 10.75 17ZM3 10.75H1C0.586 10.75 0.25 10.414 0.25 10C0.25 9.586 0.586 9.25 1 9.25H3C3.414 9.25 3.75 9.586 3.75 10C3.75 10.414 3.414 10.75 3 10.75ZM19.75 10C19.75 10.414 19.414 10.75 19 10.75H17C16.586 10.75 16.25 10.414 16.25 10C16.25 9.586 16.586 9.25 17 9.25H19C19.414 9.25 19.75 9.586 19.75 10ZM3.10599 4.16599C2.81299 3.87299 2.81299 3.39801 3.10599 3.10501C3.39899 2.81201 3.87399 2.81201 4.16699 3.10501L5.58099 4.51901C5.87399 4.81201 5.87399 5.28699 5.58099 5.57999C5.43499 5.72599 5.24299 5.79999 5.05099 5.79999C4.85899 5.79999 4.667 5.72699 4.521 5.57999L3.10599 4.16599ZM16.894 15.834C17.187 16.127 17.187 16.602 16.894 16.895C16.748 17.041 16.556 17.115 16.364 17.115C16.172 17.115 15.98 17.042 15.834 16.895L14.42 15.481C14.127 15.188 14.127 14.713 14.42 14.42C14.713 14.127 15.188 14.127 15.481 14.42L16.894 15.834ZM5.58099 14.419C5.87399 14.712 5.87399 15.187 5.58099 15.48L4.16699 16.894C4.02099 17.04 3.82899 17.114 3.63699 17.114C3.44499 17.114 3.25299 17.041 3.10699 16.894C2.81399 16.601 2.81399 16.126 3.10699 15.833L4.521 14.419C4.813 14.126 5.28799 14.126 5.58099 14.419ZM14.419 5.58099C14.126 5.28799 14.126 4.81299 14.419 4.51999L15.833 3.10599C16.126 2.81299 16.601 2.81299 16.894 3.10599C17.187 3.39899 17.187 3.87399 16.894 4.16699L15.48 5.58099C15.334 5.72699 15.142 5.80099 14.95 5.80099C14.758 5.80099 14.566 5.72699 14.419 5.58099Z" fill="#000000"/>
</svg>
