<?xml version="1.0" encoding="UTF-8"?>
<svg width="25" height="25" version="1.1" viewBox="75 100 600 400" xmlns="http://www.w3.org/2000/svg" xmlns:xlink="http://www.w3.org/1999/xlink">
 <g>
  <path d="m286.82 55.703h-20.902l0.003906-20.902c0-6.4453-5.2266-11.668-11.668-11.668-6.4453 0-11.668 5.2227-11.668 11.668v20.902h-20.898c-6.4453 0-11.668 5.2227-11.668 11.664 0 6.4453 5.2227 11.668 11.668 11.668h20.902v20.895h-0.003906c0 6.4453 5.2227 11.668 11.668 11.668 6.4414 0 11.668-5.2227 11.668-11.668v-20.895h20.898c6.4453 0 11.668-5.2227 11.668-11.668 0-6.4414-5.2227-11.664-11.668-11.664z" fill-opacity="0.48" />
  <path d="m400.15 107.66h-71.645c-6.4453 0-11.668 5.2227-11.668 11.668v406.42c0 6.4453 5.2227 11.668 11.668 11.668h71.645c6.4453 0 11.668-5.2227 11.668-11.668v-406.42c0-6.4453-5.2227-11.668-11.668-11.668zm-11.668 406.43h-48.312v-293.21h48.312zm0-316.54h-48.312v-66.551h48.312z" fill-opacity="0.48" />
  <path d="m254.26 175.4h-20.902v-20.902c0-6.4414-5.2227-11.664-11.664-11.664-6.4453 0-11.668 5.2227-11.668 11.664v20.902h-20.902c-6.4414 0-11.664 5.2227-11.664 11.668 0 6.4414 5.2227 11.664 11.664 11.664h20.902v20.898c0 6.4414 5.2227 11.664 11.668 11.664 6.4414 0 11.664-5.2227 11.664-11.664v-20.895h20.902v-0.003906c6.4414 0 11.668-5.2227 11.668-11.664 0-6.4453-5.2266-11.668-11.668-11.668z" fill-opacity="0.48" />
  <path d="m510.88 175.4h-20.902v-20.902c0-6.4414-5.2227-11.664-11.664-11.664-6.4453 0-11.668 5.2227-11.668 11.664v20.902h-20.902c-6.4414 0-11.664 5.2227-11.664 11.668 0 6.4414 5.2227 11.664 11.664 11.664h20.902v20.898c0 6.4414 5.2227 11.664 11.668 11.664 6.4414 0 11.664-5.2227 11.664-11.664v-20.895h20.902v-0.003906c6.4414 0 11.664-5.2227 11.664-11.664 0-6.4453-5.2227-11.668-11.664-11.668z" fill-opacity="0.48" />
 </g>
</svg>
